# xmcd CD database file
#
# Track frame offsets:
#	150
#	25265
#	51040
#	64485
#	78867
#	90605
#	102520
#	128987
#	154377
#	167337
#	181125
#	192390
#
# Disc length: 2728 seconds
#
# Revision: 1
# Processed by: cddbd v1.5.1PL2 Copyright (c) Steve Scherf et al.
# Submitted via: CDex 1.51
#
DISCID=9b0aa60c
DTITLE=Fats Navarro - Memorial
DYEAR=1947
DGENRE=Jazz
TTITLE0=Boppin' A Riff-Part 1 and Part .2
TTITLE1=Fat Boy- Part 1 and Part 2
TTITLE2=Be Bob Carroll
TTITLE3=Gone With The Wind
TTITLE4=Serenade to a Square
TTITLE5=Good Kick
TTITLE6=Everything Cool-Part 1 and Part 2
TTITLE7=Webb City-Part 1 and Part 2
TTITLE8=Tadd Walk
TTITLE9=That Someone Must Be You
TTITLE10=Seven Up
TTITLE11=Blues In Be Bop
EXTD=YEAR: 1947
EXTT0=
EXTT1=
EXTT2=
EXTT3=
EXTT4=
EXTT5=
EXTT6=
EXTT7=
EXTT8=
EXTT9=
EXTT10=
EXTT11=
PLAYORDER=
